OFF
#
# bcp_3_8
#
# file generated with python script by Marcel Tunnissen
# Vertices Faces Edges
96 16 112
# Vertices
-0.0779747763974 -0.3660254037844 1.4253133737126
0.2640453669283 1.3660254037844 0.4856207529267
-1.3067254444971 0.1412805323929 0.6663942520194
0.5726597970747 0.1412805323928 1.3504345386708
-0.5144214890546 1.3660254037844 0.2022819889861
-0.8564416323803 -0.3660254037844 1.141974609772
0.714329179045 0.8587194676072 0.9612011106793
-1.1650560625268 0.8587194676072 0.277160824028
0.5144214890546 -1.3660254037844 -0.2022819889861
0.8564416323803 0.3660254037844 -1.141974609772
-0.714329179045 -0.8587194676072 -0.9612011106793
1.1650560625268 -0.8587194676072 -0.277160824028
0.0779747763974 0.3660254037844 -1.4253133737126
-0.2640453669283 -1.3660254037844 -0.4856207529267
1.3067254444971 -0.1412805323929 -0.6663942520194
-0.5726597970747 -0.1412805323929 -1.3504345386708
-0.0779747763974 -0.3660254037844 1.4253133737126
0.0222006042803 0.1412805323928 1.1500837773154
0.5726597970747 0.1412805323928 1.3504345386708
0.2542610600684 0.5 1.0141484427048
0.714329179045 0.8587194676072 0.9612011106793
0.1638699862506 0.8587194676072 0.7608503493239
0.2640453669283 1.3660254037844 0.4856207529267
-0.1960227520483 1.0073059361773 0.5385680849521
-0.5144214890546 1.3660254037844 0.2022819889861
-0.6145968697323 0.8587194676072 0.4775115853834
-1.1650560625268 0.8587194676072 0.277160824028
-0.8466573255205 0.5 0.613446919994
-1.3067254444971 0.1412805323929 0.6663942520194
-0.7562662517026 0.1412805323929 0.8667450133748
-0.8564416323803 -0.3660254037844 1.141974609772
-0.3963735134037 -0.0073059361773 1.0890272777466
-0.5726597970747 -0.1412805323929 -1.3504345386708
-0.0222006042803 -0.1412805323929 -1.1500837773154
0.0779747763974 0.3660254037844 -1.4253133737126
0.3963735134037 0.0073059361773 -1.0890272777466
0.8564416323803 0.3660254037844 -1.141974609772
0.7562662517026 -0.1412805323929 -0.8667450133748
1.3067254444971 -0.1412805323929 -0.6663942520194
0.8466573255205 -0.5 -0.613446919994
1.1650560625268 -0.8587194676072 -0.277160824028
0.6145968697323 -0.8587194676072 -0.4775115853834
0.5144214890546 -1.3660254037844 -0.2022819889861
0.1960227520483 -1.0073059361773 -0.5385680849521
-0.2640453669283 -1.3660254037844 -0.4856207529267
-0.1638699862506 -0.8587194676072 -0.7608503493239
-0.714329179045 -0.8587194676072 -0.9612011106793
-0.2542610600684 -0.5 -1.0141484427048
0.2640453669283 1.3660254037844 0.4856207529267
0.8564416323803 0.3660254037844 -1.141974609772
-0.8913718328478 1.073132184971 -0.4747804170759
0.988013408724 1.073132184971 0.2092598695754
0.0779747763974 0.3660254037844 -1.4253133737126
-0.5144214890546 1.3660254037844 0.2022819889861
1.2333919761734 0.6589186225979 -0.46491220371
-0.6459932653984 0.6589186225979 -1.1489524903613
-0.0779747763974 -0.3660254037844 1.4253133737126
0.5144214890546 -1.3660254037844 -0.2022819889861
-1.2333919761734 -0.6589186225979 0.46491220371
0.6459932653984 -0.6589186225979 1.1489524903613
-0.2640453669283 -1.3660254037844 -0.4856207529267
-0.8564416323803 -0.3660254037844 1.141974609772
0.8913718328478 -1.073132184971 0.4747804170759
-0.988013408724 -1.073132184971 -0.2092598695754
0.2640453669283 1.3660254037844 0.4856207529267
0.4375542159296 1.073132184971 0.00890910822
0.988013408724 1.073132184971 0.2092598695754
0.7214692644573 0.8660254037844 -0.2694955490376
1.2333919761734 0.6589186225979 -0.46491220371
0.682932783379 0.6589186225979 -0.6652629650654
0.8564416323803 0.3660254037844 -1.141974609772
0.3445189206642 0.573132184971 -0.9465579550996
0.0779747763974 0.3660254037844 -1.4253133737126
-0.0955340726039 0.6589186225979 -0.9486017290059
-0.6459932653984 0.6589186225979 -1.1489524903613
-0.3794491211316 0.8660254037844 -0.6701970717483
-0.8913718328478 1.073132184971 -0.4747804170759
-0.3409126400533 1.073132184971 -0.2744296557205
-0.5144214890546 1.3660254037844 0.2022819889861
-0.0024987773385 1.1589186225979 0.0068653343137
-0.988013408724 -1.073132184971 -0.2092598695754
-0.4375542159296 -1.073132184971 -0.00890910822
-0.2640453669283 -1.3660254037844 -0.4856207529267
0.0024987773385 -1.1589186225979 -0.0068653343137
0.5144214890546 -1.3660254037844 -0.2022819889861
0.3409126400533 -1.073132184971 0.2744296557205
0.8913718328478 -1.073132184971 0.4747804170759
0.3794491211316 -0.8660254037844 0.6701970717483
0.6459932653984 -0.6589186225979 1.1489524903613
0.0955340726039 -0.6589186225979 0.9486017290059
-0.0779747763974 -0.3660254037844 1.4253133737126
-0.3445189206642 -0.573132184971 0.9465579550996
-0.8564416323803 -0.3660254037844 1.141974609772
-0.682932783379 -0.6589186225979 0.6652629650654
-1.2333919761734 -0.6589186225979 0.46491220371
-0.7214692644573 -0.8660254037844 0.2694955490376
# Sides and colours
16  16 17 18 19 20 21 22 23 24 25 26 27 28 29 30 31  220 159 220
16  32 33 34 35 36 37 38 39 40 41 42 43 44 45 46 47  220 159 220
4  9 10 2 1  254 214 0
4  10 11 3 2  64 104 224
4  11 12 4 3  254 214 0
4  13 14 6 5  64 104 224
4  14 15 7 6  254 214 0
4  15 8 0 7  64 104 224
16  64 65 66 67 68 69 70 71 72 73 74 75 76 77 78 79  220 159 220
16  80 81 82 83 84 85 86 87 88 89 90 91 92 93 94 95  220 159 220
4  57 58 50 49  153 204 49
4  58 59 51 50  177 33 33
4  59 60 52 51  153 204 49
4  61 62 54 53  177 33 33
4  62 63 55 54  153 204 49
4  63 56 48 55  177 33 33
# END
