OFF
#
# bcp_1_7
#
# file generated with python script by Marcel Tunnissen
# Vertices Faces Edges
28 16 42
# Vertices
1.4840836288742 -0.3660254037844 1.9938561374168
1.8261037721999 1.3660254037844 1.0541635166309
0.5699872940471 2.4459414186048 -0.0665294806915
-1.3383844774286 2.0605238552448 -0.5243181695956
-2.4619686746161 0.5 0.0255216698508
-1.9546834800925 -1.0605238552448 1.1689494238559
-0.1985249920662 -1.4459414186048 2.0449406719783
2.0764798943263 -1.3660254037844 0.3662607747181
2.4185000376519 0.3660254037844 -0.5734318460678
1.1623835594991 1.4459414186048 -1.6941248433902
-0.7459882119765 1.0605238552448 -2.1519135322943
-1.869572409164 -0.5 -1.6020736928479
-1.3622872146404 -2.0605238552448 -0.4586459388429
0.3938712733858 -2.4459414186048 0.4173453092795
1.8261037721999 1.3660254037844 1.0541635166309
2.4185000376519 0.3660254037844 -0.5734318460678
1.3184905182739 -0.2574643980743 -2.1230251876435
-0.6455951817377 -0.034943464118 -2.4277411159461
-1.9947604702272 0.8660254037844 -1.2581223218915
-1.7130563670056 1.7669942716869 0.5050843867217
-0.0126118075153 1.9895152056432 1.5341483954457
1.4840836288742 -0.3660254037844 1.9938561374168
2.0764798943263 -1.3660254037844 0.3662607747181
0.9764703749482 -1.9895152056432 -1.1833325668576
-0.9876153250634 -1.7669942716869 -1.4880484951602
-2.3367806135529 -0.8660254037844 -0.3184297011056
-2.0550765103313 0.034943464118 1.4447770075076
-0.354631950841 0.2574643980743 2.4738410162316
# Sides and colours
7  0 1 2 3 4 5 6  220 159 220
7  13 12 11 10 9 8 7  220 159 220
4  8 9 2 1  254 214 0
4  9 10 3 2  64 104 224
4  10 11 4 3  254 214 0
4  11 12 5 4  64 104 224
4  12 13 6 5  254 214 0
4  13 7 0 6  64 104 224
7  14 15 16 17 18 19 20  220 159 220
7  27 26 25 24 23 22 21  220 159 220
4  22 23 16 15  153 204 49
4  23 24 17 16  177 33 33
4  24 25 18 17  153 204 49
4  25 26 19 18  177 33 33
4  26 27 20 19  153 204 49
4  27 21 14 20  177 33 33
# END
