OFF
#
# bcp_2_7
#
# file generated with python script by Marcel Tunnissen
# Vertices Faces Edges
84 16 98
# Vertices
0.2821716544171 -0.3660254037844 1.5563959545063
0.6241917977427 1.3660254037844 0.6167033337204
-1.2841799737329 0.9806078404244 0.1589146448163
-0.7768947792093 -0.5799160148204 1.3023423988213
0.9057138417311 0.5 1.2512578642599
-0.3504026364217 1.5799160148204 0.1305648669375
-1.4739868336092 0.0193921595756 0.6804047063839
0.8745679198691 -1.3660254037844 -0.0711994081925
1.2165880631948 0.3660254037844 -1.0108920289784
-0.6917837082809 -0.0193921595756 -1.4686807178825
-0.1844985137573 -1.5799160148204 -0.3252529638774
1.4981101071832 -0.5 -0.3763374984389
0.2419936290304 0.5799160148204 -1.4970304957612
-0.8815905681571 -0.9806078404244 -0.9471906563148
0.2821716544171 -0.3660254037844 1.5563959545063
0.3875065148314 0.1674090549925 1.2669908040366
0.9057138417311 0.5 1.2512578642599
0.5188569373284 0.8325909450075 0.9061084841901
0.6241917977427 1.3660254037844 0.6167033337204
0.036454267981 1.2473250698129 0.4757142470073
-0.3504026364217 1.5799160148204 0.1305648669375
-0.6964424439712 1.099308174396 0.2999037315294
-1.2841799737329 0.9806078404244 0.1589146448163
-1.1279470260597 0.5 0.5110658417921
-1.4739868336092 0.0193921595756 0.6804047063839
-0.9331277268825 -0.099308174396 0.9501912018456
-0.7768947792093 -0.5799160148204 1.3023423988213
-0.2586874523096 -0.2473250698129 1.2866094590446
-0.8815905681571 -0.9806078404244 -0.9471906563148
-0.5355507606076 -0.5 -1.1165295209067
-0.6917837082809 -0.0193921595756 -1.4686807178825
-0.1040461785191 0.099308174396 -1.3276916311694
0.2419936290304 0.5799160148204 -1.4970304957612
0.628850533433 0.2473250698129 -1.1518811156914
1.2165880631948 0.3660254037844 -1.0108920289784
1.1112532027805 -0.1674090549925 -0.7214868785087
1.4981101071832 -0.5 -0.3763374984389
0.9799027802834 -0.8325909450075 -0.3606045586622
0.8745679198691 -1.3660254037844 -0.0711994081925
0.3337088131425 -1.2473250698129 -0.3409859036541
-0.1844985137573 -1.5799160148204 -0.3252529638774
-0.3407314614305 -1.099308174396 -0.6774041608532
0.6241917977427 1.3660254037844 0.6167033337204
1.2165880631948 0.3660254037844 -1.0108920289784
-0.7474976368168 0.5885463377408 -1.3156079572809
-0.4657935335952 1.4895152056432 0.4475987513323
1.37292204612 0.8660254037844 -0.0323861274824
0.2729125267419 0.2425356019257 -1.5819794690581
-1.0762527617476 1.1435044698281 -0.4123606750036
0.2821716544171 -0.3660254037844 1.5563959545063
0.8745679198691 -1.3660254037844 -0.0711994081925
-1.0895177801425 -1.1435044698281 -0.375915336495
-0.8078136769209 -0.2425356019257 1.3872913721182
1.0309019027943 -0.8660254037844 0.9073064933035
-0.0691076165838 -1.4895152056432 -0.6422868482722
-1.4182729050733 -0.5885463377408 0.5273319457824
0.6241917977427 1.3660254037844 0.6167033337204
0.8066371277885 1.0580468754145 0.1154389091347
1.37292204612 0.8660254037844 -0.0323861274824
1.034142733149 0.6740039321543 -0.5096276043927
1.2165880631948 0.3660254037844 -1.0108920289784
0.6116918397128 0.4345570735558 -1.1047379921479
0.2729125267419 0.2425356019257 -1.5819794690581
-0.1426014133348 0.5200146679694 -1.2217619941114
-0.7474976368168 0.5885463377408 -1.3156079572809
-0.6607388216708 0.8660254037844 -0.7725781499503
-1.0762527617476 1.1435044698281 -0.4123606750036
-0.5525523487411 1.2120361395995 -0.0954310559983
-0.4657935335952 1.4895152056432 0.4475987513323
0.1004913847363 1.2974937340131 0.2997737147152
-1.4182729050733 -0.5885463377408 0.5273319457824
-1.0027589649965 -0.8660254037844 0.1671144708356
-1.0895177801425 -1.1435044698281 -0.375915336495
-0.4846215566605 -1.2120361395995 -0.2820693733255
-0.0691076165838 -1.4895152056432 -0.6422868482722
0.2696716963872 -1.2974937340131 -0.1650453713619
0.8745679198691 -1.3660254037844 -0.0711994081925
0.6921225898234 -1.0580468754145 0.4300650163932
1.0309019027943 -0.8660254037844 0.9073064933035
0.4646169844628 -0.6740039321543 1.0551315299207
0.2821716544171 -0.3660254037844 1.5563959545063
-0.2415287585894 -0.4345570735558 1.2394663355011
-0.8078136769209 -0.2425356019257 1.3872913721182
-0.8945724920668 -0.5200146679694 0.8442615647876
# Sides and colours
14  14 15 16 17 18 19 20 21 22 23 24 25 26 27  220 159 220
14  28 29 30 31 32 33 34 35 36 37 38 39 40 41  220 159 220
4  8 9 2 1  254 214 0
4  9 10 3 2  64 104 224
4  10 11 4 3  254 214 0
4  11 12 5 4  64 104 224
4  12 13 6 5  254 214 0
4  13 7 0 6  64 104 224
14  56 57 58 59 60 61 62 63 64 65 66 67 68 69  220 159 220
14  70 71 72 73 74 75 76 77 78 79 80 81 82 83  220 159 220
4  50 51 44 43  153 204 49
4  51 52 45 44  177 33 33
4  52 53 46 45  153 204 49
4  53 54 47 46  177 33 33
4  54 55 48 47  153 204 49
4  55 49 42 48  177 33 33
# END
