OFF
#
# bcp_1_3
#
# file generated with python script by Marcel Tunnissen
# Vertices Faces Edges
12 8 18
# Vertices
0.0753235831774 -0.3660254037844 1.4811094135597
0.4173437265031 1.3660254037844 0.5414167927738
-1.3812617078585 0.5 0.4188668377147
0.6677198486294 -1.3660254037844 -0.1464859491391
1.0097399919551 0.3660254037844 -1.086178569925
-0.7888654424065 -0.5 -1.2087285249841
0.4173437265031 1.3660254037844 0.5414167927738
1.0097399919551 0.3660254037844 -1.086178569925
-0.9140535034697 0.8660254037844 -0.8647771540277
0.0753235831774 -0.3660254037844 1.4811094135597
0.6677198486294 -1.3660254037844 -0.1464859491391
-1.2560736467953 -0.8660254037844 0.0749154667583
# Sides and colours
3  0 1 2  220 159 220
3  5 4 3  220 159 220
4  4 5 2 1  254 214 0
4  5 3 0 2  64 104 224
3  6 7 8  220 159 220
3  11 10 9  220 159 220
4  10 11 8 7  153 204 49
4  11 9 6 8  177 33 33
# END
