OFF
#
# bcp_2_6
#
# file generated with python script by Marcel Tunnissen
# Vertices Faces Edges
24 16 36
# Vertices
-1.0097399919551 -0.3660254037844 1.086178569925
0.7888654424065 0.5 1.2087285249841
-0.6677198486294 1.3660254037844 0.1464859491391
-0.4173437265031 -1.3660254037844 -0.5414167927738
1.3812617078585 -0.5 -0.4188668377147
-0.0753235831774 0.3660254037844 -1.4811094135597
0.7888654424065 0.5 1.2087285249841
1.3812617078585 -0.5 -0.4188668377147
0.5277810012774 1.2990381056767 -0.6060367546808
-1.0097399919551 -0.3660254037844 1.086178569925
-0.4173437265031 -1.3660254037844 -0.5414167927738
-1.2708244330842 0.4330127018922 -0.7285867097399
0.4173437265031 1.3660254037844 0.5414167927738
-1.3812617078585 0.5 0.4188668377147
0.0753235831774 -0.3660254037844 1.4811094135597
1.0097399919551 0.3660254037844 -1.086178569925
-0.7888654424065 -0.5 -1.2087285249841
0.6677198486294 -1.3660254037844 -0.1464859491391
-1.3812617078585 0.5 0.4188668377147
-0.7888654424065 -0.5 -1.2087285249841
-0.5277810012774 -1.2990381056767 0.6060367546808
0.4173437265031 1.3660254037844 0.5414167927738
1.0097399919551 0.3660254037844 -1.086178569925
1.2708244330842 -0.4330127018922 0.7285867097399
# Sides and colours
3  0 1 2  220 159 220
3  5 4 3  220 159 220
4  4 5 2 1  64 104 224
4  5 3 0 2  64 104 224
3  6 7 8  220 159 220
3  11 10 9  220 159 220
4  10 11 8 7  64 104 224
4  11 9 6 8  64 104 224
3  12 13 14  220 159 220
3  17 16 15  220 159 220
4  16 17 14 13  153 204 49
4  17 15 12 14  153 204 49
3  18 19 20  220 159 220
3  23 22 21  220 159 220
4  22 23 20 19  153 204 49
4  23 21 18 20  153 204 49
# END
