OFF
#
# bcp_3_7
#
# file generated with python script by Marcel Tunnissen
# Vertices Faces Edges
84 16 98
# Vertices
-0.2527294957619 -0.3660254037844 1.3617078575664
0.0892906475638 1.3660254037844 0.4220152367805
-1.0342935496237 -0.1944984514604 0.9718550762269
0.6483150713167 0.88541756336 0.9207705416654
-1.2600567001589 0.5 0.4629818527613
0.4961017878673 0.11458243664 1.3389731008837
-0.7600146902855 1.1944984514604 0.2182801035613
0.3396667696902 -1.3660254037844 -0.2658875051324
0.6816869130158 0.3660254037844 -1.2055801259183
-0.4418972841717 -1.1944984514604 -0.6557402864719
1.2407113367688 -0.11458243664 -0.7068248210333
-0.6676604347069 -0.5 -1.1646135099374
1.0884980533194 -0.88541756336 -0.288622261815
-0.1676184248334 0.1944984514604 -1.4093152591374
-0.2527294957619 -0.3660254037844 1.3617078575664
-0.1306639198731 0.2521363724163 1.0263354441191
0.4961017878673 0.11458243664 1.3389731008837
0.0477990072233 0.5 0.9390024009636
0.6483150713167 0.88541756336 0.9207705416654
-0.0327749283251 0.7478636275837 0.7573876502278
0.0892906475638 1.3660254037844 0.4220152367805
-0.3117119096414 0.8090808881003 0.6182508034814
-0.7600146902855 1.1944984514604 0.2182801035613
-0.5789667005171 0.6375539357763 0.626364744199
-1.2600567001589 0.5 0.4629818527613
-0.6332909924185 0.3624460642237 0.775619509526
-1.0342935496237 -0.1944984514604 0.9718550762269
-0.4337774855303 0.1909191118997 0.9536232169287
-0.1676184248334 0.1944984514604 -1.4093152591374
0.2806843558106 -0.1909191118997 -1.0093445592173
0.6816869130158 0.3660254037844 -1.2055801259183
0.559621337127 -0.2521363724163 -0.870207712471
1.2407113367688 -0.11458243664 -0.7068248210333
0.6401952726753 -0.5 -0.6885929617351
1.0884980533194 -0.88541756336 -0.288622261815
0.461732345579 -0.7478636275837 -0.6012599185796
0.3396667696902 -1.3660254037844 -0.2658875051324
0.1586187799218 -0.8090808881003 -0.67397214577
-0.4418972841717 -1.1944984514604 -0.6557402864719
-0.0408947269665 -0.6375539357763 -0.8519758531728
-0.6676604347069 -0.5 -1.1646135099374
0.0134295649349 -0.3624460642237 -1.0012306184997
0.0892906475638 1.3660254037844 0.4220152367805
0.6816869130158 0.3660254037844 -1.2055801259183
-0.6674783754737 1.2669942716869 -0.0359613318637
1.1712372042415 0.6435044698281 -0.5159462106784
-0.7928484957701 0.8660254037844 -0.820662138981
0.9075960637203 1.0885463377408 0.2084018697429
-0.1924134556578 0.465056535882 -1.3411914718328
-0.2527294957619 -0.3660254037844 1.3617078575664
0.3396667696902 -1.3660254037844 -0.2658875051324
-1.0094985187993 -0.465056535882 0.9037312889222
0.8292170609158 -1.0885463377408 0.4237464101075
-1.1348686390957 -0.8660254037844 0.1190304818049
0.5655759203946 -0.6435044698281 1.1480944905289
-0.5344335989835 -1.2669942716869 -0.4014988510469
0.0892906475638 1.3660254037844 0.4220152367805
0.3007144268584 1.0091295358922 -0.1588668227672
0.9075960637203 1.0885463377408 0.2084018697429
0.5150072116121 0.8660254037844 -0.3446415907787
1.1712372042415 0.6435044698281 -0.5159462106784
0.4702631337212 0.7229212716766 -0.6246980663706
0.6816869130158 0.3660254037844 -1.2055801259183
0.2001753964503 0.6875774698383 -0.7881480113111
-0.1924134556578 0.465056535882 -1.3411914718328
-0.0918744252497 0.7866086019359 -0.7119102832889
-0.7928484957701 0.8660254037844 -0.820662138981
-0.1859668589082 0.945442205633 -0.4533934464708
-0.6674783754737 1.2669942716869 -0.0359613318637
-0.0112483828443 1.0444733377305 -0.2072659517634
-0.5344335989835 -1.2669942716869 -0.4014988510469
-0.1418447468753 -1.0444733377305 0.1515446094748
0.3396667696902 -1.3660254037844 -0.2658875051324
0.1282429903955 -1.0091295358922 0.3149945544154
0.8292170609158 -1.0885463377408 0.4237464101075
0.1729870682865 -0.8660254037844 0.5950510300072
0.5655759203946 -0.6435044698281 1.1480944905289
-0.0413057164673 -0.7229212716766 0.7808257980187
-0.2527294957619 -0.3660254037844 1.3617078575664
-0.35326852617 -0.6875774698383 0.7324266690225
-1.0094985187993 -0.465056535882 0.9037312889222
-0.5279870022338 -0.7866086019359 0.4862991743151
-1.1348686390957 -0.8660254037844 0.1190304818049
-0.4338945685754 -0.945442205633 0.227782337497
# Sides and colours
14  14 15 16 17 18 19 20 21 22 23 24 25 26 27  220 159 220
14  28 29 30 31 32 33 34 35 36 37 38 39 40 41  220 159 220
4  8 9 2 1  254 214 0
4  9 10 3 2  64 104 224
4  10 11 4 3  254 214 0
4  11 12 5 4  64 104 224
4  12 13 6 5  254 214 0
4  13 7 0 6  64 104 224
14  56 57 58 59 60 61 62 63 64 65 66 67 68 69  220 159 220
14  70 71 72 73 74 75 76 77 78 79 80 81 82 83  220 159 220
4  50 51 44 43  153 204 49
4  51 52 45 44  177 33 33
4  52 53 46 45  153 204 49
4  53 54 47 46  177 33 33
4  54 55 48 47  153 204 49
4  55 49 42 48  177 33 33
# END
