OFF
#
# TCA_7_2_D3C3
#
# file generated with python script by Marcel Tunnissen
# Vertices Faces Edges
75 40 0
# Vertices
1.3077102155317 0.1731832151065 0.766737793385
-0.3678731587661 -0.8116245379057 1.2385153314087
-0.0342127992666 -1.3800904169169 -0.6497424128885
1.4928777453912 -0.1422915472649 -0.2811661972897
0.4795981574255 -0.1246979893038 1.4430596995493
-0.5965405466863 -1.370326728854 0.3071307701179
0.8956658202904 -0.8335633458401 -0.911559194151
-0.4281805379802 1.1579909681187 0.8964951880831
-1.504319242092 -0.0876377714315 -0.2394337413483
-0.0121128751153 0.4491256115825 -1.4581237056172
0.3999315201261 1.455872172529 0.2201732819188
-1.2756518541718 0.4710644195168 0.6919508199425
-0.9419914946723 -0.0974014594944 -1.1963069243548
0.5850990499855 1.1403974101576 -0.8277307087559
0.7916665137544 -0.1301164273934 0.9120351452636
0.1481705430112 -0.5083248954057 1.0932179795302
-0.2651129322721 -0.9866998227521 0.656972490137
-0.1369730257606 -1.2050151320705 -0.0681995716168
0.4360982993647 -0.9988749426235 -0.5362288524163
1.0225666467599 -0.5235070215583 -0.394679757762
1.1808093890622 -0.1368731091753 0.2498583569961
0.1147879513542 0.7591819358642 -0.9412442692282
-0.471680396041 0.283814014799 -1.0827933638825
-1.0447517211663 0.077673825352 -0.614764083083
-1.1728916276777 0.2959891346705 0.1104079786708
-0.7596081523944 0.7743640620168 0.546653468064
-0.1161121816512 1.1525725300291 0.3654706337973
0.2730306936566 1.1458158482472 -0.2967061544702
-1.2689545436207 0.394471835749 -0.749754369531
-0.834467530444 -1.2353456894186 0.3249157519656
-0.1870584367314 0.2535104787085 1.4928921113189
-0.9096696022776 1.2207246737595 -0.101576390822
-1.235486473101 -0.6985823064046 -0.5599475096547
0.2592821791622 -0.7789095700066 -1.2861018275886
1.126895493497 -0.8919518015076 0.5123610134749
1.066588114283 1.0776637045168 0.1703408701492
0.2258141086424 0.314144572147 -1.4759086874649
0.6603011218192 -1.3156729530205 -0.4012385659683
-0.3864465366663 -0.2050252529057 1.1331804709944
-0.40960716008 0.5513916831188 1.0018300484974
-0.687120878929 0.9228434693492 0.3894856719995
-1.0100142026719 0.6296193345185 -0.2427448534474
-1.1351418727067 -0.1074769671636 -0.4187790470294
-0.968280201358 -0.733396886506 -0.006059570536
-0.6350794305091 -0.7768099578043 0.6846273922901
0.5264884509051 -0.8137241501079 -0.7322138884699
0.3596267795564 -0.1878042307656 -1.1449333649632
0.4847544495913 0.5492920709165 -0.9688991713813
0.8076477733341 0.8425162057473 -0.3366686459344
1.0851614921832 0.4710644195168 0.2756757305635
1.1083221155968 -0.2853525165077 0.4070261530606
0.8596892217541 -0.8571372214063 -0.0415269256438
0.8539318189765 0.5294528751844 -1.1482444770623
-0.6800085493141 1.355705713195 -0.1662397957048
0.4564375340118 0.6317189467207 1.3117092770523
1.484611814597 0.1276705316059 -0.3280446203248
-0.1094148711002 1.0759799462612 -1.0762345556762
-0.9337255638781 -0.3673635383652 -1.1494285013197
-1.2524912307581 -0.2853525165077 0.8233012424396
0.4833995227539 -1.2701602695199 0.6935438477415
0.0296211261986 -0.913890609442 -1.2214384227058
0.1064365416973 0.8546913256188 0.8565326966189
0.7730931358542 0.4764828576065 0.8067002848493
1.1679562127546 0.2829066207202 0.1769643718782
0.9936858217536 0.4197294695708 -0.5584710555555
0.3815111217432 0.7839210082964 -0.8458081204455
-0.2075878520808 1.101237580083 -0.4686761523217
-0.3300075569996 1.1327333342969 0.2889367847286
-1.0318985448586 -0.3421059045434 -0.5418700979652
-0.4427995710347 -0.6594224763301 -0.919002066089
0.1693751289758 -1.0236140150557 -0.631665001199
0.3436455199767 -1.1604368639063 0.1037704262347
-0.0512175569237 -0.9668606270199 0.7335063392058
-0.7178741510805 -0.5886521590077 0.7833387509754
-1.1543182497775 -0.3106101503295 0.2157428390851
# Sides and colours
14  0 14 4 15 1 16 5 17 2 18 6 19 3 20  64 104 224
14  7 26 10 27 13 21 9 22 12 23 8 24 11 25  64 104 224
3  1 8 2  64 104 224
3  2 9 3  64 104 224
3  3 10 4  64 104 224
3  4 11 5  64 104 224
3  5 12 6  64 104 224
3  0 6 13  64 104 224
3  2 8 9  64 104 224
3  3 9 10  64 104 224
3  4 10 11  64 104 224
3  5 11 12  64 104 224
3  6 12 13  64 104 224
14  1 38 30 39 7 40 31 41 28 42 32 43 29 44  153 204 49
14  0 50 34 51 37 45 33 46 36 47 13 48 35 49  153 204 49
3  7 13 28  153 204 49
3  28 33 29  153 204 49
3  29 34 30  153 204 49
3  30 35 31  153 204 49
3  31 36 32  153 204 49
3  1 32 37  153 204 49
3  13 33 28  153 204 49
3  29 33 34  153 204 49
3  30 34 35  153 204 49
3  31 35 36  153 204 49
3  32 36 37  153 204 49
14  0 63 55 64 52 65 56 66 53 67 7 61 54 62  220 159 220
14  1 73 58 74 8 68 57 69 60 70 37 71 59 72  220 159 220
3  0 37 52  220 159 220
3  52 57 53  220 159 220
3  53 58 54  220 159 220
3  54 59 55  220 159 220
3  55 60 56  220 159 220
3  7 56 8  220 159 220
3  37 57 52  220 159 220
3  53 57 58  220 159 220
3  54 58 59  220 159 220
3  55 59 60  220 159 220
3  8 56 60  220 159 220
3  0 7 1  254 214 0
# END
