OFF
#
# TCA_7_4_D3C3
#
# file generated with python script by Marcel Tunnissen
# Vertices Faces Edges
75 40 0
# Vertices
1.1841959530971 0.047763546083 0.0662536023762
-0.4913874212007 -0.9370442069292 0.5380311403999
0.7948749606947 0.5899916512524 0.6550378613538
0.152693610909 -1.17682413252 -0.0275785024995
0.0236020364225 0.4798320422934 1.0854469616518
0.8983983656499 -0.7385434505846 -0.2375392592608
-0.5488385766419 -0.1997628484013 1.0333740720001
-0.5516948004148 1.0325712990952 0.1960109970742
0.3231015288126 -0.1858041937828 -1.1269752238384
-1.1241354134793 0.3529764084005 0.1439381074226
0.6088991162598 0.6005028028848 -0.8231823622014
-1.066684258038 -0.3843049501274 -0.3514048241777
0.2195781238574 1.1427309080542 -0.2343981032237
-0.4226032259283 -0.6240848757182 -0.9170144670771
-0.032325692077 -0.392051419021 0.579790355624
0.1066213613951 -0.5855703892109 0.3696556865149
0.381885481085 -0.5462548799649 0.2160444571153
0.5861871705014 -0.3037102716353 0.2346290562612
0.5656830905187 -0.0405776013027 0.411414901739
0.335813231571 0.0449988633441 0.6132786461298
0.0696742859365 -0.1114217010156 0.6882127726374
-0.2394836052663 0.5977381201459 -0.2761573184478
-0.0096137463186 0.5121616554991 -0.4780210628386
0.010890333664 0.2490289851665 -0.6548069083164
-0.1934113557524 0.0064843768369 -0.6733915074622
-0.4686754754422 -0.0328311324092 -0.5197802780627
-0.6076225289144 0.1606878377808 -0.3096456089536
-0.5056225509009 0.4413175557862 -0.2012231919402
0.2237054867933 -0.6380435303367 0.9756265986882
-1.1132101718667 0.4026848667874 -0.0871720299566
0.5204283158531 0.1979719247177 1.0483093229461
-1.0863708631724 -0.4738764970834 0.0650412534928
0.175342723654 0.9414654689706 0.70134773935
0.8391103608981 0.7912570903359 -0.2807079812199
0.1723802160434 -1.087252585564 -0.44402458017
0.1120728368293 0.8823629204604 -0.7860447234957
0.8874731240374 -0.7882519089714 -0.0064291218817
-0.4494425346227 0.2524764881526 -1.0692277505265
-0.2749576419478 0.4363357696315 0.4742525838346
-0.5301713459699 0.3296236636587 0.3180765729631
-0.6360704975706 0.0312532022557 0.2921364090083
-0.5129108756456 -0.2340965714927 0.4159655645111
-0.2534341875029 -0.266611865805 0.5963181597234
-0.0530316716737 -0.041808000873 0.6973850119279
-0.0626105100438 0.2710331278465 0.6430607200265
0.6107359655704 -0.1920163795077 -0.284670708642
0.4103334497412 -0.4168202444398 -0.3857375608465
0.1508567615985 -0.3843049501274 -0.5660901560589
0.0276971396735 -0.118955176379 -0.6899193115617
0.1335962912742 0.1794152850239 -0.6639791476069
0.3888099952963 0.2861273909968 -0.5078031367354
0.6011571272003 0.1208247492117 -0.3389950005434
-0.5703620310869 0.5031847870353 0.9113084961113
0.85535145676 0.6673518202885 -0.4816704110385
0.0408625067468 -0.0838881928579 1.1833359531998
0.0828073933248 1.1056325022239 -0.4239229377266
0.821714269389 -0.2865697126184 0.8072511448032
0.2894643414416 -1.1397257266897 0.1619463320033
-1.0839447283623 0.1794152850239 -0.4492938157257
0.6519460251497 -0.8053924679883 -0.5790512104237
-1.1026119590343 -0.349971227036 0.2660036833114
0.5580014585646 0.2103015051292 0.3678502020923
0.5646637160564 0.3992373638013 0.1125634803724
0.3465202041493 0.6087612844763 0.0154780049843
0.0678374366259 0.6810974813769 0.149701119078
-0.0615307784761 0.5617753228475 0.4141600800885
0.0558324634457 0.340646827989 0.6097118963952
0.3315502474504 0.1842262636293 0.5891020617889
-0.4764174645018 -0.5125091860822 -0.0355929164048
-0.5937807064236 -0.2913806912238 -0.2311447327114
-0.4644124913216 -0.1720585326944 -0.4956036937219
-0.1857297237982 -0.244394729595 -0.6298268078156
0.032413788109 -0.45391865027 -0.5327413324275
0.0257515306171 -0.6428545089421 -0.2774546107076
-0.2006996804971 -0.668929750442 -0.056202751011
# Sides and colours
14  0 18 2 19 4 20 6 14 1 15 3 16 5 17  64 104 224
14  7 21 12 22 10 23 8 24 13 25 11 26 9 27  64 104 224
3  1 8 2  64 104 224
3  2 9 3  64 104 224
3  3 10 4  64 104 224
3  4 11 5  64 104 224
3  5 12 6  64 104 224
3  0 6 13  64 104 224
3  2 8 9  64 104 224
3  3 9 10  64 104 224
3  4 10 11  64 104 224
3  5 11 12  64 104 224
3  6 12 13  64 104 224
14  1 42 28 43 30 44 32 38 7 39 29 40 31 41  153 204 49
14  0 45 36 46 34 47 13 48 37 49 35 50 33 51  153 204 49
3  7 13 28  153 204 49
3  28 33 29  153 204 49
3  29 34 30  153 204 49
3  30 35 31  153 204 49
3  31 36 32  153 204 49
3  1 32 37  153 204 49
3  13 33 28  153 204 49
3  29 33 34  153 204 49
3  30 34 35  153 204 49
3  31 35 36  153 204 49
3  32 36 37  153 204 49
14  0 62 53 63 55 64 7 65 52 66 54 67 56 61  220 159 220
14  1 68 60 69 58 70 37 71 8 72 59 73 57 74  220 159 220
3  0 37 52  220 159 220
3  52 57 53  220 159 220
3  53 58 54  220 159 220
3  54 59 55  220 159 220
3  55 60 56  220 159 220
3  7 56 8  220 159 220
3  37 57 52  220 159 220
3  53 57 58  220 159 220
3  54 58 59  220 159 220
3  55 59 60  220 159 220
3  8 56 60  220 159 220
3  0 7 1  254 214 0
# END
